# xmcd
#
# Track frame offsets:
#	150
#	17285
#	31457
#	50240
#	67295
#	81847
#	101274
#	117194
#	131774
#	148742
#	163909
#	180756
#	198041
#	215356
#	230701
#	247866
#	271996
#	290219
#	310976
#	334639
#
# Disc length: 4676 seconds
#
# Revision: 1
# Processed by: cddbd v1.5.1PL0 Copyright (c) Steve Scherf et al.
# Submitted via: audiograbber 1.83.01
#
DISCID=25124214
DTITLE=Travis Tritt - The lovin'rocking side
DYEAR=1900
DGENRE=Country
TTITLE0=Rough around the edges
TTITLE1=Wishful thinking
TTITLE2=Start the car
TTITLE3=Back up against the wall
TTITLE4=Double trouble
TTITLE5=Put some drive in your country
TTITLE6=Take it easy
TTITLE7=Hard times and misery
TTITLE8=No more looking over my shoulder
TTITLE9=Still in love with you
TTITLE10=For you
TTITLE11=I'm all the man
TTITLE12=Only you (and you alone)
TTITLE13=More than you'll ever know
TTITLE14=If I lost you
TTITLE15=When something is wrong with my baby - with Patti Labelle
TTITLE16=Between an old memory and me
TTITLE17=Did you fall far enough
TTITLE18=Drift off to dream
TTITLE19=She's going home with me
EXTD=
EXTT0=
EXTT1=
EXTT2=
EXTT3=
EXTT4=
EXTT5=
EXTT6=
EXTT7=
EXTT8=
EXTT9=
EXTT10=
EXTT11=
EXTT12=
EXTT13=
EXTT14=
EXTT15=
EXTT16=
EXTT17=
EXTT18=
EXTT19=
PLAYORDER=
